  <svg
    width={494}
    height={109.19293328732698}
    viewBox="0 0 369.61403508771934 81.69886776395359"
    className="looka-1j8o68f"
    {...props}
  >
    <defs id="SvgjsDefs7846" />
    <g
      id="SvgjsG7847"
      featurekey="AgVF85-0"
      transform="matrix(2.2099586475785906,0,0,2.2099586475785906,-3.055990319514408,-13.39996014639088)"
      fill="#aea1ea"
    >
      <g xmlns="http://www.w3.org/2000/svg">
        <path
          fillRule="evenodd"
          clipRule="evenodd"
          fill="#aea1ea"
          d="M24.808,6.982c12.998-0.254,23.552,3.092,23.682,7.34   c0,4.375-10.427,8.107-23.426,8.363c-12.998,0.258-23.552-2.959-23.68-7.336C1.255,10.976,11.809,7.242,24.808,6.982L24.808,6.982z    M24.808,8.398C14.125,8.658,5.501,11.748,5.63,15.22c0,3.605,8.753,6.307,19.434,6.049c10.682-0.256,19.306-3.219,19.177-6.82   C44.111,10.843,35.487,8.144,24.808,8.398L24.808,8.398z M24.937,17.796h1.029l-0.129-0.646c1.286,0,2.315-0.127,3.088-0.514   c0.773-0.258,1.158-0.643,1.158-1.029c0-0.129-0.129-0.258-0.385-0.514c-0.128-0.131-0.389-0.258-0.773-0.385   c-0.385-0.131-0.772-0.131-1.285-0.26c-0.387,0-0.901,0-1.803-0.127v-1.676c0.513,0,1.028,0.129,1.286,0.258   c0.387,0.127,0.645,0.256,0.645,0.516l1.803-0.129c-0.129-0.387-0.516-0.645-1.287-0.902c-0.644-0.127-1.418-0.258-2.446-0.258   v-0.254h-1.029v0.254c-1.158,0.131-2.061,0.258-2.703,0.389c-0.902,0.256-1.286,0.641-1.286,1.027c0,0.26,0.129,0.518,0.513,0.645   c0.259,0.258,0.646,0.387,1.287,0.387c0.772,0.131,1.417,0.258,2.189,0.258v1.928c-0.645-0.127-1.287-0.127-1.673-0.385   c-0.388-0.127-0.646-0.385-0.772-0.643l-1.803,0.129c0.129,0.258,0.259,0.514,0.771,0.771c0.388,0.127,0.773,0.387,1.416,0.387   c0.514,0.127,1.288,0.127,2.061,0.127L24.937,17.796L24.937,17.796z M24.808,12.646c-0.772,0.129-1.287,0.129-1.673,0.385   c-0.388,0.129-0.517,0.26-0.517,0.516c0,0.131,0.129,0.387,0.517,0.518c0.256,0,0.9,0.127,1.673,0.258V12.646L24.808,12.646z    M25.837,16.636c0.772,0,1.286-0.129,1.673-0.258c0.513-0.256,0.773-0.385,0.773-0.643s-0.261-0.387-0.516-0.516   c-0.386-0.127-1.029-0.258-1.931-0.258V16.636L25.837,16.636z M47.972,17.15c-1.801,3.992-11.327,7.209-22.908,7.465   C13.609,24.873,3.959,22.042,2.029,18.05c-0.259,0.516-0.389,1.031-0.259,1.547c0,4.631,10.553,8.105,23.422,7.849   c12.87-0.258,23.167-4.246,23.167-8.88C48.359,18.05,48.23,17.666,47.972,17.15L47.972,17.15z M48.099,21.654   c-1.928,3.992-11.322,7.208-22.906,7.466c-11.453,0.258-21.106-2.576-23.036-6.562c-0.257,0.512-0.386,1.027-0.386,1.543   c0.129,4.632,10.682,8.107,23.552,7.851c12.869-0.258,23.167-4.25,23.037-8.882C48.359,22.558,48.23,22.169,48.099,21.654   L48.099,21.654z M48.099,26.933c0.261,0.514,0.391,1.029,0.391,1.416c0.127,4.631-10.167,8.621-23.039,8.877   c-12.871,0.262-23.421-3.215-23.551-7.848c0-0.516,0.13-1.029,0.386-1.416c1.931,3.859,11.582,6.693,23.037,6.434   C36.904,34.142,46.299,30.921,48.099,26.933L48.099,26.933z M48.23,32.722c-1.803,3.992-11.326,7.209-22.78,7.336   c-11.454,0.258-21.107-2.443-23.165-6.432c-0.129,0.516-0.256,1.029-0.256,1.414c0.127,4.635,10.55,8.236,23.421,7.979   c12.872-0.258,23.295-4.246,23.166-8.877C48.616,33.626,48.489,33.108,48.23,32.722z"
        />
      </g>
    </g>
    <g
      id="SvgjsG7848"
      featurekey="vRT5cH-0"
      transform="matrix(2.8355350835038733,0,0,2.8355350835038733,121.16446424045188,-17.29676509104442)"
      fill="#b2ebf9"
    >
      <path d="M10.14 8.26 l-6.98 0 l0 5.22 c1.22 -0.88 2.72 -1.44 5.36 -1.44 l0.98 0 l0 1.94 l-0.98 0 c-2.96 0 -4.9 0.9 -5.36 2.5 l0 3.44 l-2.16 0 l0 -13.64 l9.14 0 l0 1.98 z M13.82 19.92 l-2.16 0 l0 -13.64 l2.16 0 l0 13.64 z M24.8 6.279999999999999 l2.16 0 l0 13.64 l-2.02 0 l0 -0.98 c0 -2.06 -1.08 -3.72 -2.36 -4.88 c-0.98 -0.88 -2.08 -1.62 -3.1 -2.38 c-0.54 -0.4 -1.04 -0.82 -1.5 -1.26 l0 9.5 l-2.16 0 l0 -13.64 l2.06 0 c0.02 0.98 0.48 1.74 1.16 2.42 c0.8 0.84 1.88 1.58 2.94 2.36 c1 0.74 2 1.56 2.82 2.52 l0 -7.3 z M28.36 6.279999999999999 l10.96 0 l0 1.98 l-4.4 0 l0 11.66 l-2.16 0 l0 -11.66 l-4.4 0 l0 -1.98 z M54.82 14.9 l-1 2.52 l-2.26 0 l4.6 -11.14 l2.16 0 l4.58 11.14 l-2.26 0 l-1 -2.52 l-4.82 0 z M48.68 15.2 c1.26 1.66 3.3 5.18 8.44 5.18 c2.02 0 3.62 -0.46 4.46 -0.8 l0 2.08 c-1.38 0.46 -3.1 0.66 -4.46 0.66 c-3.38 0 -6.58 -1 -10 -5.92 c-0.88 -1.26 -1.8 -1.86 -3.34 -1.86 l-0.9 0 l0 5.38 l-2.16 0 l0 -13.64 l4.92 0 c2.92 0.02 5.14 0.88 5.14 4.12 c0 2.44 -1.28 3.34 -3.1 3.64 c0.36 0.36 0.68 0.74 1 1.16 z M44.78 12.559999999999999 c1.98 0.02 3.76 0.06 3.76 -2.16 c0 -1.9 -1.24 -2.14 -2.8 -2.14 l-2.86 0 l0 4.3 l1.9 0 z M57.239999999999995 8.8 l-1.64 4.12 l3.26 0 z M70.97999999999999 8.08 c-3.12 0 -5.12 2.16 -5.12 5.02 c0 2.88 2.24 5.04 5.12 5.04 c2.38 0 3.6 -1.1 4.18 -1.8 l0 2.52 c-1.02 0.86 -2.62 1.24 -4.32 1.24 c-4.32 0 -7.22 -3.14 -7.22 -7 s2.9 -7 7.22 -7 c2.24 0 3.68 0.66 4.32 1.24 l0 2.54 c-0.24 -0.34 -1.64 -1.8 -4.18 -1.8 z M78.94 19.92 l-2.16 0 l0 -13.64 l2.16 0 l0 13.64 z M85.1 15.7 c1.54 2.26 2.12 2.26 2.52 2.26 l0 1.96 l-0.44 0 c-1.42 0 -2.4 -0.98 -3.28 -2.32 c-0.88 -1.32 -2.8 -4.82 -4.62 -4.82 l5.58 -6.5 l2.74 0 l-5.1 5.94 c1.18 0.88 1.88 2.4 2.6 3.48 z" />
    </g>
    <g
      id="SvgjsG7849"
      featurekey="dDj50M-0"
      transform="matrix(1.2767129059869509,0,0,1.2767129059869509,122.72328587644473,49.21205139523643)"
      fill="#b2ebf9"
    >
      <path d="M10.48 8.26 l-7.32 0 l0 4.64 c1.22 -0.88 2.72 -1.44 5.36 -1.44 l0.98 0 l0 1.94 l-0.98 0 c-2.62 0 -4.9 0.9 -5.36 2.48 l0 2.08 l7.32 0 l0 1.96 l-9.48 0 l0 -13.64 l9.48 0 l0 1.98 z M22.34 6.279999999999999 l2.26 0 l-5.62 13.64 l-2.16 0 l-5.64 -13.64 l2.26 0 l4.46 10.96 z M35.2 8.26 l-7.32 0 l0 4.64 c1.22 -0.88 2.72 -1.44 5.36 -1.44 l0.98 0 l0 1.94 l-0.98 0 c-2.62 0 -4.9 0.9 -5.36 2.48 l0 2.08 l7.32 0 l0 1.96 l-9.48 0 l0 -13.64 l9.48 0 l0 1.98 z M45.12 15.7 c1.54 2.26 2.12 2.26 2.52 2.26 l0 1.96 l-0.32 0 c-1.42 0 -2.4 -0.98 -3.28 -2.32 c-0.88 -1.32 -1.88 -3.06 -4.1 -3.06 l-0.98 0 l0 5.38 l-2.16 0 l0 -13.64 l4.92 0 c2.92 0.02 5.14 0.74 5.14 4 c0 2.38 -1.36 3.36 -3.2 3.72 c0.56 0.42 1 1 1.46 1.7 z M40.86 12.559999999999999 c1.98 0.02 3.76 0.06 3.76 -2.16 c0 -1.9 -1.24 -2.14 -2.8 -2.14 l-2.86 0 l0 4.3 l1.9 0 z M58.04 6.279999999999999 l2.54 0 l-5.6 8.26 l0 5.38 l-2.14 0 l0 -5.36 l-5.6 -8.28 l2.54 0 l4.14 6.1 z M74.66 8.08 c-3.12 0 -5.12 2.16 -5.12 5.02 c0 2.88 2.24 5.04 5.12 5.04 c2.38 0 3.6 -1.1 4.18 -1.8 l0 2.52 c-1.02 0.86 -2.62 1.24 -4.32 1.24 c-4.32 0 -7.22 -3.14 -7.22 -7 s2.9 -7 7.22 -7 c2.24 0 3.68 0.66 4.32 1.24 l0 2.54 c-0.24 -0.34 -1.64 -1.8 -4.18 -1.8 z M86.98 6.1 c4.3 0 6.9 3.14 6.9 7 s-2.6 7 -6.9 7 c-4.32 0 -6.92 -3.14 -6.92 -7 s2.6 -7 6.92 -7 z M86.98 18.14 c3.1 0 4.66 -2.16 4.66 -5.04 c0 -2.86 -1.56 -5.02 -4.66 -5.02 c-3.12 0 -4.68 2.16 -4.68 5.02 c0 2.88 1.56 5.04 4.68 5.04 z M88.38000000000001 13.1 l-1.4 1.4 l-1.4 -1.4 l1.4 -1.38 z M97.66000000000001 19.92 l-2.16 0 l0 -13.64 l2.16 0 l0 13.64 z M108.64000000000001 6.279999999999999 l2.16 0 l0 13.64 l-2.02 0 l0 -0.98 c0 -2.06 -1.08 -3.72 -2.36 -4.88 c-0.98 -0.88 -2.08 -1.62 -3.1 -2.38 c-0.54 -0.4 -1.04 -0.82 -1.5 -1.26 l0 9.5 l-2.16 0 l0 -13.64 l2.06 0 c0.02 0.98 0.48 1.74 1.16 2.42 c0.8 0.84 1.88 1.58 2.94 2.36 c1 0.74 2 1.56 2.82 2.52 l0 -7.3 z M125.76 8.08 c-3.12 0 -5.12 2.16 -5.12 5.02 c0 2.88 2.24 5.04 5.12 5.04 c2.38 0 3.6 -1.1 4.18 -1.8 l0 2.52 c-1.02 0.86 -2.62 1.24 -4.32 1.24 c-4.32 0 -7.22 -3.14 -7.22 -7 s2.9 -7 7.22 -7 c2.24 0 3.68 0.66 4.32 1.24 l0 2.54 c-0.24 -0.34 -1.64 -1.8 -4.18 -1.8 z M138.08 6.1 c4.3 0 6.9 3.14 6.9 7 s-2.6 7 -6.9 7 c-4.32 0 -6.92 -3.14 -6.92 -7 s2.6 -7 6.92 -7 z M138.08 18.14 c3.1 0 4.66 -2.16 4.66 -5.04 c0 -2.86 -1.56 -5.02 -4.66 -5.02 c-3.12 0 -4.68 2.16 -4.68 5.02 c0 2.88 1.56 5.04 4.68 5.04 z M139.48 13.1 l-1.4 1.4 l-1.4 -1.4 l1.4 -1.38 z M155.01999999999998 6.279999999999999 l2.16 0 l0 7.72 c0 3.86 -1.42 6.1 -5.4 6.1 c-3.92 0 -5.38 -2.26 -5.38 -6.12 l0 -7.7 l2.16 0 l0 8.12 c0 1.78 0.56 3.74 3.22 3.74 c2.72 0 3.24 -1.94 3.24 -3.74 l0 -8.12 z M167.95999999999998 6.279999999999999 l2.16 0 l0 13.64 l-2.02 0 l0 -0.98 c0 -2.06 -1.08 -3.72 -2.36 -4.88 c-0.98 -0.88 -2.08 -1.62 -3.1 -2.38 c-0.54 -0.4 -1.04 -0.82 -1.5 -1.26 l0 9.5 l-2.16 0 l0 -13.64 l2.06 0 c0.02 0.98 0.48 1.74 1.16 2.42 c0.8 0.84 1.88 1.58 2.94 2.36 c1 0.74 2 1.56 2.82 2.52 l0 -7.3 z M171.52 6.279999999999999 l10.96 0 l0 1.98 l-4.4 0 l0 11.66 l-2.16 0 l0 -11.66 l-4.4 0 l0 -1.98 z M188.57999999999998 12.120000000000001 c3.72 1.22 4.8 2.26 4.8 4.08 c0 2.88 -2.84 3.9 -5.28 3.9 c-1.76 0 -3.46 -0.54 -4.36 -1.16 l0 -2.24 s1.9 1.42 4.36 1.42 c0.48 0 3.02 -0.06 3.02 -1.68 c0 -1.3 -0.98 -1.68 -3.14 -2.4 c-3.54 -1.14 -4.5 -2.38 -4.5 -4.14 c0 -0.7 0.4 -3.8 5.06 -3.8 c1.54 0 3.38 0.44 4.2 0.98 l0 2.18 c-0.12 -0.18 -1.92 -1.18 -4.18 -1.18 c-2.4 0 -2.82 1.1 -2.82 1.82 c0 0.6 0.2 1.36 2.84 2.22 z" />
    </g>
  </svg>
