<svg version="1.1" id="Layer_1" xmlns="http://www.w3.org/2000/svg" xmlns:xlink="http://www.w3.org/1999/xlink" x="0px" y="0px"
	 width="100%" viewBox="0 0 512 512" enable-background="new 0 0 512 512" xml:space="preserve">
<path fill="#000000" opacity="1.000000" stroke="none" 
	d="
M513.000000,189.000000 
	C513.000000,297.307007 513.000000,405.114014 513.000000,512.960510 
	C342.401306,512.960510 171.802628,512.960510 1.101965,512.960510 
	C1.101965,342.443024 1.101965,171.885956 1.101965,1.164450 
	C171.666534,1.164450 342.333252,1.164450 513.000000,1.164450 
	C513.000000,63.530674 513.000000,126.015335 513.000000,189.000000 
M466.137482,391.510254 
	C466.779816,391.068024 467.422150,390.625793 468.717773,389.776825 
	C469.415436,388.283386 470.035461,386.747253 470.827972,385.305969 
	C472.199615,382.811340 473.678223,380.375488 475.564423,377.410614 
	C475.776794,376.310669 475.989166,375.210754 476.904999,373.953979 
	C478.295746,370.683899 479.686493,367.413849 481.762604,363.962067 
	C482.278931,362.737518 482.795258,361.512970 483.979919,360.096954 
	C484.311035,359.052307 484.642181,358.007690 485.629211,356.755646 
	C486.148834,355.546753 486.668427,354.337860 487.764496,352.652191 
	C488.255005,351.392700 489.083862,350.148529 489.141693,348.869476 
	C489.200562,347.566254 488.500885,346.228729 488.254669,344.217407 
	C489.508636,342.806305 490.762634,341.395233 491.998810,340.001648 
	C491.998810,340.001648 491.982330,340.021393 492.392761,339.508759 
	C492.519501,338.653625 492.646240,337.798492 493.175629,336.300171 
	C495.409210,329.211090 497.642792,322.122009 499.974335,314.231812 
	C500.462799,310.285400 504.407776,306.376709 500.103668,302.377991 
	C500.718750,301.761780 501.316223,301.126587 501.954102,300.534943 
	C502.545563,299.986389 503.180176,299.484406 503.928284,298.058319 
	C505.046936,292.629089 501.714355,286.934998 504.888611,281.590759 
	C505.057068,281.307129 504.372772,280.516968 503.992645,279.298523 
	C504.978821,277.598785 506.775055,275.918823 506.817169,274.196014 
	C507.055786,264.430969 506.874603,254.655701 506.942810,243.982681 
	C506.121918,236.967316 505.212219,229.960770 504.514862,222.933136 
	C504.123291,218.987274 504.637146,214.879105 503.761261,211.069809 
	C502.239838,204.453339 499.864349,198.038101 498.019928,191.489746 
	C496.160522,184.888290 496.025238,177.710541 491.167114,172.138718 
	C490.480194,171.350861 490.199371,170.016907 490.132721,168.911469 
	C489.704987,161.816879 485.476349,156.220581 482.936523,149.245422 
	C481.433197,146.023026 480.162842,142.664169 478.373596,139.609238 
	C475.470428,134.652374 471.930023,130.056549 469.186676,125.020668 
	C462.650269,113.022034 454.072021,102.544456 445.346161,92.168167 
	C443.432404,89.892479 441.018921,88.037018 438.921326,85.268761 
	C435.347321,82.841400 434.646149,77.041687 429.010345,76.260948 
	C428.382233,75.826035 427.754120,75.391121 426.992554,74.240944 
	C424.703430,72.139351 422.414337,70.037750 419.996552,67.211304 
	C418.323242,66.128296 416.546661,65.174477 414.997528,63.936146 
	C411.463135,61.110851 408.110229,58.056580 404.547485,55.269329 
	C402.132568,53.380070 399.570160,51.642082 396.918793,50.103390 
	C394.529022,48.716534 391.461853,48.204857 389.502655,46.419304 
	C381.467682,39.096554 371.382812,35.584949 361.875916,31.038759 
	C355.521942,28.000292 348.983398,25.261406 342.329681,22.960394 
	C335.677307,20.659864 328.778839,19.071009 321.317322,16.691969 
	C319.971741,16.122379 318.673157,15.289546 317.270599,15.039355 
	C314.558411,14.555549 311.782867,14.438762 309.042175,14.100261 
	C304.029297,13.481124 299.022614,12.811395 293.368042,12.019032 
	C292.929718,11.974549 292.491425,11.930067 291.923157,11.063905 
	C286.890076,10.037858 281.880646,8.293176 276.819305,8.126756 
	C264.009369,7.705557 251.171097,7.786042 238.354660,8.097630 
	C233.134491,8.224541 227.936813,9.440377 222.746643,10.271562 
	C222.402695,10.326645 222.209900,11.325703 221.291397,11.970677 
	C220.856644,12.034706 220.421906,12.098735 219.087845,12.037933 
	C216.273270,12.123134 213.416809,11.933402 210.653427,12.354536 
	C205.870911,13.083385 201.125687,14.102419 196.408783,15.190353 
	C194.872665,15.544650 193.473633,16.493349 191.197403,17.042639 
	C183.005997,19.595982 174.303268,20.376823 166.545532,24.481728 
	C162.033310,26.869297 157.245621,28.730537 152.635742,30.940943 
	C148.671585,32.841736 144.779633,34.893688 140.863297,36.893547 
	C135.568680,39.597218 130.104263,42.023243 125.034554,45.098930 
	C118.367607,49.143639 111.890678,53.534138 105.568977,58.103725 
	C101.451950,61.079685 97.756447,64.638779 93.159904,68.027992 
	C90.495178,70.680817 87.830460,73.333641 84.997383,76.690727 
	C81.892441,81.282562 76.280617,82.855865 73.259018,88.297440 
	C69.620346,94.850288 62.983841,99.706123 57.836296,105.467415 
	C55.337700,108.263901 53.069702,111.319054 51.054214,114.484367 
	C45.728825,122.847839 40.462696,131.256149 35.461102,139.814987 
	C33.617760,142.969376 32.581337,146.595306 31.005909,150.730392 
	C29.462013,154.979156 25.859440,157.841537 25.425657,163.226425 
	C24.914497,169.571854 21.108906,175.623230 18.927553,181.870468 
	C16.516308,188.776108 13.776802,195.637299 12.201856,202.744232 
	C10.747916,209.305145 10.646644,216.165817 9.259593,223.390610 
	C8.502890,232.145233 7.549654,240.888809 7.056711,249.658264 
	C6.712609,255.779816 6.733060,261.952454 7.093637,268.072662 
	C7.348979,272.406677 8.445046,276.691101 9.035028,281.890137 
	C10.030069,290.859833 10.654401,299.891479 12.139087,308.779388 
	C13.297694,315.715240 15.520038,322.473877 17.298214,329.303864 
	C17.365507,329.562317 17.842531,329.701294 17.942041,329.966064 
	C19.647316,334.503906 21.274422,339.071747 23.026627,343.591125 
	C23.865416,345.754547 24.903563,347.842834 25.895607,349.944275 
	C28.551733,355.570770 31.198881,361.201935 33.916245,366.798889 
	C35.259670,369.565948 36.750015,372.261688 38.048046,375.765289 
	C41.746490,382.193634 44.936001,388.995117 49.294468,394.939545 
	C53.216171,400.288239 56.482834,406.081940 61.577057,410.772644 
	C67.551193,416.273468 71.421669,424.116852 77.546997,429.382568 
	C87.651123,438.068787 96.256081,448.525421 108.286964,455.068542 
	C115.202179,458.829376 121.204155,464.234344 127.845261,468.548126 
	C131.507889,470.927246 135.675537,472.517334 139.555084,474.576965 
	C144.399506,477.148865 149.059311,480.101593 154.023239,482.406616 
	C159.635742,485.012695 165.495499,487.086975 171.251022,489.384247 
	C175.097595,490.919556 178.832230,492.987640 182.825745,493.846588 
	C189.783936,495.343201 196.765305,495.413269 203.699615,498.570343 
	C210.160995,501.512054 218.169632,501.321594 225.545013,501.904419 
	C231.330582,502.361633 237.189194,501.894409 243.914261,501.959412 
	C247.420883,502.616119 250.912704,503.651672 254.439590,503.789368 
	C256.603302,503.873871 259.804321,505.953613 261.971283,501.992401 
	C267.331055,501.945831 272.690857,501.899261 278.946381,501.936584 
	C281.952820,501.923370 284.959259,501.910156 288.625122,501.983795 
	C293.216003,501.316925 297.807556,500.654358 302.396881,499.977020 
	C302.886139,499.904846 303.364075,499.752136 303.844940,499.627808 
	C316.287476,496.410278 328.765015,493.319397 341.150848,489.896606 
	C344.960449,488.843811 348.593079,487.034882 352.170044,485.291718 
	C355.200012,483.815094 357.847748,481.049500 360.986511,480.392853 
	C371.523529,478.188354 380.195068,472.416595 389.002350,466.848633 
	C391.768524,465.099792 396.059113,464.762970 396.838409,460.025543 
	C397.549530,459.966003 398.260651,459.906433 399.616119,459.709503 
	C400.777893,459.160736 401.939667,458.611969 403.803497,457.930267 
	C408.262054,453.968964 412.720612,450.007660 417.860657,446.029480 
	C418.630432,445.387054 419.400208,444.744629 420.839630,443.972260 
	C426.259521,438.326294 431.679413,432.680298 437.762573,426.909851 
	C439.211731,425.283234 440.660858,423.656647 442.750214,421.943146 
	C443.839203,420.976349 444.928192,420.009552 446.619781,418.679688 
	C448.084229,416.120483 449.548706,413.561249 451.641205,410.722198 
	C455.271729,408.385071 458.837585,405.998199 459.810760,400.930206 
	C463.657745,400.731049 462.644745,397.038025 464.753845,394.983612 
	C465.111694,393.997528 465.469574,393.011444 466.137482,391.510254 
z"/>
<path fill="#4DAF50" opacity="1.000000" stroke="none" 
	d="
M243.015366,501.837860 
	C237.189194,501.894409 231.330582,502.361633 225.545013,501.904419 
	C218.169632,501.321594 210.160995,501.512054 203.699615,498.570343 
	C196.765305,495.413269 189.783936,495.343201 182.825745,493.846588 
	C178.832230,492.987640 175.097595,490.919556 171.251022,489.384247 
	C165.495499,487.086975 159.635742,485.012695 154.023239,482.406616 
	C149.059311,480.101593 144.399506,477.148865 139.555084,474.576965 
	C135.675537,472.517334 131.507889,470.927246 127.845261,468.548126 
	C121.204155,464.234344 115.202179,458.829376 108.286964,455.068542 
	C96.256081,448.525421 87.651123,438.068787 77.546997,429.382568 
	C71.421669,424.116852 67.551193,416.273468 61.577057,410.772644 
	C56.482834,406.081940 53.216171,400.288239 49.294468,394.939545 
	C44.936001,388.995117 41.746490,382.193634 38.470673,375.357880 
	C39.320839,373.575104 40.107315,372.185944 40.055038,370.829071 
	C40.017559,369.856415 38.655754,369.009369 38.229958,367.965515 
	C34.062298,357.747955 29.838169,347.550110 25.901787,337.242889 
	C23.680540,331.426666 21.729147,325.480988 20.101219,319.473053 
	C18.839216,314.815521 19.049566,309.642426 17.217661,305.281433 
	C13.907636,297.401703 13.385006,289.262939 12.980225,280.606934 
	C12.316024,277.868011 10.676226,275.283081 11.173376,273.210754 
	C13.890476,261.884827 13.862871,250.690048 11.035636,239.435165 
	C10.801004,238.501114 10.978208,237.445831 11.056266,236.454147 
	C11.356485,232.639984 11.694242,228.828781 12.352982,224.931366 
	C13.477486,221.533096 14.193121,218.200226 15.069697,214.910248 
	C18.354830,202.580444 21.449627,190.192108 25.100178,177.970383 
	C27.349525,170.439743 30.388062,163.136536 33.260899,155.805130 
	C34.203102,153.400635 35.738426,151.228531 37.419720,148.198212 
	C34.561920,149.025848 32.869396,149.516006 31.176876,150.006165 
	C32.581337,146.595306 33.617760,142.969376 35.461102,139.814987 
	C40.462696,131.256149 45.728825,122.847839 51.054214,114.484367 
	C53.069702,111.319054 55.337700,108.263901 57.836296,105.467415 
	C62.983841,99.706123 69.620346,94.850288 73.259018,88.297440 
	C76.280617,82.855865 81.892441,81.282562 85.452103,76.344025 
	C87.028320,76.181664 88.472305,76.898430 89.211098,76.450943 
	C91.462440,75.087288 93.595123,73.419571 95.396461,71.513420 
	C95.751938,71.137268 94.423798,69.170082 93.872116,67.936646 
	C97.756447,64.638779 101.451950,61.079685 105.568977,58.103725 
	C111.890678,53.534138 118.367607,49.143639 125.034554,45.098930 
	C130.104263,42.023243 135.568680,39.597218 140.863297,36.893547 
	C144.779633,34.893688 148.671585,32.841736 152.635742,30.940943 
	C157.245621,28.730537 162.033310,26.869297 166.545532,24.481728 
	C174.303268,20.376823 183.005997,19.595982 191.619843,17.453659 
	C192.947571,18.441305 193.995102,19.658508 194.735794,19.494022 
	C201.116043,18.077133 207.496536,16.595825 213.751221,14.715557 
	C215.845444,14.086002 219.475052,16.683060 219.987152,12.162766 
	C220.421906,12.098735 220.856644,12.034706 221.679108,12.277126 
	C222.702820,13.249177 223.459869,14.568713 223.955688,14.476932 
	C227.927292,13.741732 231.826401,12.616838 235.796494,11.870788 
	C237.818542,11.490808 240.021133,11.236829 242.004532,11.626397 
	C252.092575,13.607840 262.114716,13.731512 272.191589,11.543764 
	C274.022705,11.146214 276.090576,11.348499 277.960236,11.720631 
	C281.918121,12.508381 285.794800,13.719553 289.764740,14.414277 
	C290.361725,14.518750 291.282257,12.774594 292.053101,11.885586 
	C292.491425,11.930067 292.929718,11.974549 293.750916,12.426348 
	C294.496613,13.365482 294.770905,14.261820 295.235413,14.374565 
	C302.481781,16.133450 309.720459,17.964493 317.044800,19.328257 
	C318.541412,19.606920 322.057922,21.665194 321.988251,17.170183 
	C328.778839,19.071009 335.677307,20.659864 342.329681,22.960394 
	C348.983398,25.261406 355.521942,28.000292 361.875916,31.038759 
	C371.382812,35.584949 381.467682,39.096554 389.502655,46.419304 
	C391.461853,48.204857 394.529022,48.716534 396.918793,50.103390 
	C399.570160,51.642082 402.132568,53.380070 404.547485,55.269329 
	C408.110229,58.056580 411.463135,61.110851 414.997528,63.936146 
	C416.546661,65.174477 418.323242,66.128296 419.713745,67.660721 
	C419.451935,69.728691 418.923981,71.641998 419.603241,72.907074 
	C421.236572,75.949089 424.054504,76.315132 427.125977,74.956207 
	C427.754120,75.391121 428.382233,75.826035 428.831726,76.796127 
	C430.496704,82.040749 433.273224,85.652802 438.835602,85.988014 
	C441.018921,88.037018 443.432404,89.892479 445.346161,92.168167 
	C454.072021,102.544456 462.650269,113.022034 469.186676,125.020668 
	C471.930023,130.056549 475.470428,134.652374 478.373596,139.609238 
	C480.162842,142.664169 481.433197,146.023026 482.530151,149.613281 
	C480.643097,149.475494 479.162384,148.969849 476.202972,147.959259 
	C478.033081,150.947067 479.408508,152.674728 480.241058,154.633179 
	C487.255463,171.133057 493.221436,187.992111 496.982330,205.559036 
	C498.533966,212.806595 500.121918,220.067123 501.157166,227.397476 
	C501.889069,232.580093 501.719666,237.889999 501.660767,242.974823 
	C487.055267,228.229630 472.810089,213.584702 458.412170,199.091461 
	C436.156769,176.688675 413.812958,154.373505 391.441193,132.086914 
	C390.113678,130.764465 388.205902,130.024475 386.343170,128.986481 
	C385.839966,128.819412 385.545197,128.742386 385.132782,128.424408 
	C384.571198,127.167397 384.110748,126.214394 383.694824,124.912239 
	C382.100494,123.126198 380.461609,121.689301 378.572754,120.074127 
	C377.607330,119.504532 376.891907,119.113220 376.063721,118.433228 
	C375.228485,117.898613 374.506042,117.652672 373.469727,117.293182 
	C372.521973,116.970398 371.888092,116.761177 371.126648,116.273735 
	C370.261017,115.803894 369.522919,115.612274 368.515289,115.305130 
	C367.886017,115.036308 367.526306,114.883003 367.041687,114.418472 
	C365.212555,113.528328 363.508301,112.949425 361.489441,112.257355 
	C360.539124,111.936783 359.903412,111.729370 359.137848,111.247131 
	C358.275421,110.772926 357.542847,110.573570 356.534637,110.268311 
	C355.892395,110.018684 355.525818,109.874977 355.038025,109.418854 
	C353.219208,108.514099 351.521576,107.921761 349.485718,107.198090 
	C342.592621,104.296158 336.049652,101.496948 329.480286,98.761063 
	C316.634583,93.411278 303.916321,87.712662 290.875763,82.886749 
	C280.032013,78.873817 269.920166,83.914757 265.223755,94.567406 
	C264.092163,97.134132 262.850403,99.652283 261.291565,102.105156 
	C258.253113,99.946693 255.582382,97.875847 252.853989,95.451439 
	C251.112762,93.877853 249.549591,91.843842 247.725479,91.574051 
	C238.141159,90.156525 229.532135,95.558403 226.109207,104.662422 
	C225.299713,106.815437 224.497818,108.971306 223.328003,111.038124 
	C219.450287,108.297401 215.936981,105.644424 212.187103,102.684616 
	C210.077774,102.071709 208.137680,101.287209 206.343506,101.539680 
	C196.973724,102.858185 190.350540,110.739784 189.116852,120.757469 
	C187.536285,133.592148 185.491211,146.369629 183.290115,159.170197 
	C180.697144,158.437561 178.460358,157.706482 175.889404,156.761200 
	C174.026505,156.120010 172.509689,155.384430 170.966797,155.324921 
	C166.641098,155.158066 162.304657,155.269150 157.972443,155.272552 
	C139.656296,155.286911 127.213013,167.655075 127.204575,185.944656 
	C127.183739,231.100357 127.454308,276.258484 127.026146,321.410126 
	C126.911270,333.524750 129.678375,343.679047 139.113129,351.997864 
	C139.884918,352.867035 140.551422,353.392029 141.184296,353.876068 
	C141.150681,353.835083 141.212509,353.748932 141.135162,354.119812 
	C143.272186,357.702881 145.287308,361.076202 147.732773,364.101624 
	C165.766495,386.411987 183.886993,408.652252 201.978409,430.916016 
	C215.778015,447.898193 229.619171,464.846924 243.347839,481.886292 
	C247.804977,487.418304 251.964767,493.189850 255.782196,498.897797 
	C253.367569,498.963470 251.342224,498.630920 249.517776,499.092438 
	C247.263092,499.662781 245.175278,500.892853 243.015366,501.837860 
z"/>
<path fill="#2C622E" opacity="1.000000" stroke="none" 
	d="
M386.568146,129.013458 
	C388.205902,130.024475 390.113678,130.764465 391.441193,132.086914 
	C413.812958,154.373505 436.156769,176.688675 458.412170,199.091461 
	C472.810089,213.584702 487.055267,228.229630 501.884949,243.221176 
	C503.879456,244.051819 505.357910,244.467865 506.836334,244.883911 
	C506.874603,254.655701 507.055786,264.430969 506.817169,274.196014 
	C506.775055,275.918823 504.978821,277.598785 503.659485,279.703918 
	C499.766724,284.709778 498.729889,289.998291 499.880035,295.528015 
	C500.162384,296.885437 502.437073,297.828400 503.795807,298.961914 
	C503.180176,299.484406 502.545563,299.986389 501.954102,300.534943 
	C501.316223,301.126587 500.718750,301.761780 500.103668,302.377991 
	C504.407776,306.376709 500.462799,310.285400 499.518494,314.618164 
	C497.407104,315.921661 494.759003,316.480530 494.275177,317.820679 
	C492.574829,322.530609 491.582764,327.500488 490.396423,332.389801 
	C489.878540,334.524109 489.255554,336.852234 492.772980,336.943359 
	C492.646240,337.798492 492.519501,338.653625 492.148743,339.494873 
	C491.545197,339.220947 491.185638,338.960876 490.826080,338.700806 
	C490.685852,338.916138 490.545654,339.131470 490.405457,339.346802 
	C490.942505,339.559235 491.479553,339.771667 492.016602,339.984131 
	C490.762634,341.395233 489.508636,342.806305 487.822174,344.645752 
	C486.268616,346.828491 484.870911,348.487640 484.212097,350.401215 
	C484.037354,350.908783 486.134186,352.198425 487.188049,353.128967 
	C486.668427,354.337860 486.148834,355.546753 485.093750,356.669434 
	C484.142670,357.818268 483.727112,359.053345 483.311584,360.288391 
	C482.795258,361.512970 482.278931,362.737518 481.341919,363.716705 
	C479.928589,363.392731 478.348267,362.886841 478.042419,363.307556 
	C476.508331,365.417664 475.277985,367.753540 473.998016,370.042023 
	C472.617523,372.510254 473.690643,373.716064 476.201538,374.110809 
	C475.989166,375.210754 475.776794,376.310669 474.934570,377.680878 
	C468.984253,378.786865 466.484619,381.483551 464.696228,388.162628 
	C463.893860,389.513306 463.386292,390.700287 462.543701,391.968689 
	C460.721588,393.688782 458.880066,395.145294 457.902863,397.046173 
	C457.441742,397.943176 458.638245,399.692352 459.083649,401.055389 
	C458.837585,405.998199 455.271729,408.385071 450.965668,410.915466 
	C447.790863,412.715363 445.291626,414.321991 442.253876,416.274811 
	C444.273224,417.760040 445.145172,418.401367 446.017151,419.042725 
	C444.928192,420.009552 443.839203,420.976349 442.078613,421.937622 
	C436.585938,420.188660 436.043243,423.928711 434.591980,426.977356 
	C428.983704,431.439880 423.689240,435.840210 418.604034,440.470367 
	C418.286774,440.759247 419.609985,442.849854 420.169983,444.102203 
	C419.400208,444.744629 418.630432,445.387054 417.142151,446.020569 
	C414.465424,446.324310 412.240204,446.155273 410.609619,447.059021 
	C407.954376,448.530640 405.464447,450.484985 403.337921,452.659271 
	C401.988220,454.039276 399.490082,456.131561 403.101440,458.063171 
	C401.939667,458.611969 400.777893,459.160736 399.286346,459.438965 
	C398.115112,458.595917 397.273621,458.023376 396.432159,457.450867 
	C396.330872,458.333588 396.229553,459.216309 396.128265,460.099030 
	C396.059113,464.762970 391.768524,465.099792 389.002350,466.848633 
	C380.195068,472.416595 371.523529,478.188354 360.986511,480.392853 
	C357.847748,481.049500 355.200012,483.815094 352.170044,485.291718 
	C348.593079,487.034882 344.960449,488.843811 341.150848,489.896606 
	C328.765015,493.319397 316.287476,496.410278 303.844940,499.627808 
	C303.364075,499.752136 302.886139,499.904846 302.396881,499.977020 
	C297.807556,500.654358 293.216003,501.316925 288.243835,501.574829 
	C284.538116,498.040314 281.585510,498.246979 278.050629,501.852661 
	C272.690857,501.899261 267.331055,501.945831 261.180725,501.934021 
	C259.013641,500.867676 257.637115,499.859741 256.260590,498.851807 
	C251.964767,493.189850 247.804977,487.418304 243.347839,481.886292 
	C229.619171,464.846924 215.778015,447.898193 201.978409,430.916016 
	C183.886993,408.652252 165.766495,386.411987 147.732773,364.101624 
	C145.287308,361.076202 143.272186,357.702881 141.520248,354.171234 
	C145.318924,354.914246 148.655151,355.976685 152.033600,357.442261 
	C153.835266,358.564301 155.593704,359.909027 157.354294,359.911865 
	C223.866470,360.018707 290.378845,360.002380 356.891205,359.999451 
	C357.888153,359.999390 359.100800,360.305939 359.828217,359.852478 
	C360.765350,359.268250 361.313812,358.060547 362.274536,356.838257 
	C378.479736,353.049103 386.896210,342.534302 386.917816,326.068085 
	C386.923492,321.739777 386.731659,317.400970 386.975037,313.086395 
	C387.183624,309.388397 385.869659,308.188934 382.121857,308.232880 
	C366.975159,308.410583 351.824158,308.387390 336.676239,308.262512 
	C311.765289,308.057129 294.141113,285.363861 299.982941,261.158264 
	C303.680817,245.836121 318.967010,232.925522 333.197815,233.589081 
	C333.894531,234.268677 334.431519,234.883530 334.971497,234.886108 
	C351.086731,234.963242 367.202362,235.000504 383.317352,234.918823 
	C383.875519,234.915985 384.427246,233.629868 385.225769,232.639114 
	C385.951477,230.994110 386.817871,229.660736 386.849030,228.308105 
	C386.987122,222.314194 387.332581,216.268188 386.714325,210.333603 
	C386.297119,206.329086 385.010040,202.136826 383.046021,198.624680 
	C377.431732,188.584900 368.356567,184.024216 356.983307,184.016846 
	C307.004517,183.984451 257.025696,183.996170 207.046906,183.993408 
	C192.886322,183.992630 178.725510,184.040146 164.565338,183.965668 
	C161.424149,183.949158 157.253464,183.997208 157.144516,179.919449 
	C157.032501,175.726547 160.948700,175.101608 164.505341,175.123810 
	C166.504486,175.136307 168.525665,174.948151 170.498337,175.179413 
	C174.562515,175.655899 176.245865,174.214294 175.990219,169.940155 
	C175.732941,165.638596 176.119263,161.298569 176.223572,156.975388 
	C178.460358,157.706482 180.697144,158.437561 183.403107,159.548172 
	C183.351166,164.202728 182.709015,168.467926 182.360794,172.756989 
	C182.191040,174.847992 180.991791,177.972977 184.696976,178.133255 
	C187.606567,178.259094 191.190430,179.969879 192.497681,174.760773 
	C196.733185,157.883118 201.335236,141.095764 205.946396,124.314919 
	C207.914001,117.154472 210.253296,110.096161 212.423676,102.991440 
	C215.936981,105.644424 219.450287,108.297401 223.350983,111.464378 
	C223.285248,114.256676 222.958252,116.568726 222.359146,118.807976 
	C217.425537,137.247864 212.417389,155.667877 207.532211,174.120499 
	C207.238678,175.229324 207.358444,176.998474 208.053879,177.715225 
	C210.169495,179.895721 217.714798,177.896912 218.979004,174.943649 
	C223.094208,165.330292 227.106842,155.673004 231.232193,146.064041 
	C238.429962,129.298706 245.682236,112.556755 252.911652,95.805008 
	C255.582382,97.875847 258.253113,99.946693 261.276123,102.487854 
	C259.537323,107.932190 257.451721,112.908531 255.354156,117.879822 
	C247.535904,136.409195 239.775543,154.963455 231.838730,173.441940 
	C230.327271,176.960922 230.871857,178.405960 234.831604,178.287186 
	C238.491104,178.177429 242.191650,177.947418 245.811005,178.344971 
	C250.955505,178.910065 253.480804,176.916077 255.399719,172.050262 
	C260.876740,158.162079 266.973938,144.518478 272.740448,130.982224 
	C273.428650,130.820999 273.779785,130.618790 274.062469,130.689667 
	C289.662476,134.601120 302.252808,130.756912 311.133759,116.688232 
	C311.704468,115.784157 314.376068,115.400612 315.651276,115.882950 
	C322.015717,118.290268 328.187042,121.205582 334.537750,123.652977 
	C337.387024,124.751030 338.102844,125.885696 337.505463,129.153931 
	C335.384033,140.760345 337.474915,151.378632 346.772034,159.603012 
	C348.966400,161.544174 352.941467,162.838348 353.410583,165.010452 
	C353.969269,167.597229 351.766388,170.867493 350.516479,173.735489 
	C348.998383,177.218903 350.407990,178.322525 353.730133,178.288773 
	C357.559082,178.249893 361.424347,177.955170 365.208710,178.368088 
	C369.525757,178.839096 371.449921,176.823135 372.953003,173.155350 
	C376.238953,165.137115 379.850342,157.252258 383.617615,149.191986 
	C384.146240,148.321335 384.386017,147.571625 384.745087,146.564499 
	C384.986267,145.949478 385.108185,145.591888 385.520294,145.113342 
	C385.967834,144.238022 386.125183,143.483688 386.436096,142.312531 
	C386.563629,138.331757 386.537628,134.767792 386.648865,130.852814 
	C386.713440,130.005707 386.640808,129.509583 386.568146,129.013458 
M395.382172,248.564163 
	C393.606506,243.509323 390.015076,241.372696 384.695312,241.408768 
	C369.217072,241.513748 353.736603,241.341370 338.258972,241.485260 
	C321.972687,241.636658 309.908600,253.651611 309.521759,269.823120 
	C309.142578,285.674652 321.066559,299.070557 336.943726,299.571045 
	C353.072357,300.079498 369.230011,299.796387 385.373138,299.653107 
	C391.927246,299.594940 395.603821,295.869965 395.655304,289.323578 
	C395.760071,276.011871 395.605011,262.698120 395.382172,248.564163 
M321.550140,178.332977 
	C326.704590,178.325821 331.859192,178.343201 337.013397,178.305099 
	C342.940063,178.261292 343.635010,177.184494 340.951782,171.957245 
	C333.519073,157.477310 321.081543,150.817612 305.350647,150.602921 
	C289.804749,150.390793 278.374176,159.281555 275.323334,172.543579 
	C274.409760,176.514755 275.179230,178.435318 279.794250,178.372437 
	C293.426147,178.186661 307.062317,178.316940 321.550140,178.332977 
z"/>
<path fill="#55B557" opacity="1.000000" stroke="none" 
	d="
M506.889587,244.433289 
	C505.357910,244.467865 503.879456,244.051819 502.176819,243.389435 
	C501.719666,237.889999 501.889069,232.580093 501.157166,227.397476 
	C500.121918,220.067123 498.533966,212.806595 496.982330,205.559036 
	C493.221436,187.992111 487.255463,171.133057 480.241058,154.633179 
	C479.408508,152.674728 478.033081,150.947067 476.202972,147.959259 
	C479.162384,148.969849 480.643097,149.475494 482.473022,149.993927 
	C485.476349,156.220581 489.704987,161.816879 490.132721,168.911469 
	C490.199371,170.016907 490.480194,171.350861 491.167114,172.138718 
	C496.025238,177.710541 496.160522,184.888290 498.019928,191.489746 
	C499.864349,198.038101 502.239838,204.453339 503.761261,211.069809 
	C504.637146,214.879105 504.123291,218.987274 504.514862,222.933136 
	C505.212219,229.960770 506.121918,236.967316 506.889587,244.433289 
z"/>
<path fill="#54B556" opacity="1.000000" stroke="none" 
	d="
M12.991051,280.997559 
	C13.385006,289.262939 13.907636,297.401703 17.217661,305.281433 
	C19.049566,309.642426 18.839216,314.815521 20.101219,319.473053 
	C21.729147,325.480988 23.680540,331.426666 25.901787,337.242889 
	C29.838169,347.550110 34.062298,357.747955 38.229958,367.965515 
	C38.655754,369.009369 40.017559,369.856415 40.055038,370.829071 
	C40.107315,372.185944 39.320839,373.575104 38.533585,374.970093 
	C36.750015,372.261688 35.259670,369.565948 33.916245,366.798889 
	C31.198881,361.201935 28.551733,355.570770 25.895607,349.944275 
	C24.903563,347.842834 23.865416,345.754547 23.026627,343.591125 
	C21.274422,339.071747 19.647316,334.503906 17.942041,329.966064 
	C17.842531,329.701294 17.365507,329.562317 17.298214,329.303864 
	C15.520038,322.473877 13.297694,315.715240 12.139087,308.779388 
	C10.654401,299.891479 10.030069,290.859833 9.483053,281.444580 
	C10.951069,280.998505 11.971060,280.998047 12.991051,280.997559 
z"/>
<path fill="#54B556" opacity="1.000000" stroke="none" 
	d="
M31.091393,150.368286 
	C32.869396,149.516006 34.561920,149.025848 37.419720,148.198212 
	C35.738426,151.228531 34.203102,153.400635 33.260899,155.805130 
	C30.388062,163.136536 27.349525,170.439743 25.100178,177.970383 
	C21.449627,190.192108 18.354830,202.580444 15.069697,214.910248 
	C14.193121,218.200226 13.477486,221.533096 12.171189,224.693390 
	C11.086143,223.991837 10.517869,223.443161 9.949597,222.894470 
	C10.646644,216.165817 10.747916,209.305145 12.201856,202.744232 
	C13.776802,195.637299 16.516308,188.776108 18.927553,181.870468 
	C21.108906,175.623230 24.914497,169.571854 25.425657,163.226425 
	C25.859440,157.841537 29.462013,154.979156 31.091393,150.368286 
z"/>
<path fill="#55B758" opacity="1.000000" stroke="none" 
	d="
M291.988129,11.474745 
	C291.282257,12.774594 290.361725,14.518750 289.764740,14.414277 
	C285.794800,13.719553 281.918121,12.508381 277.960236,11.720631 
	C276.090576,11.348499 274.022705,11.146214 272.191589,11.543764 
	C262.114716,13.731512 252.092575,13.607840 242.004532,11.626397 
	C240.021133,11.236829 237.818542,11.490808 235.796494,11.870788 
	C231.826401,12.616838 227.927292,13.741732 223.955688,14.476932 
	C223.459869,14.568713 222.702820,13.249177 222.006805,12.234633 
	C222.209900,11.325703 222.402695,10.326645 222.746643,10.271562 
	C227.936813,9.440377 233.134491,8.224541 238.354660,8.097630 
	C251.171097,7.786042 264.009369,7.705557 276.819305,8.126756 
	C281.880646,8.293176 286.890076,10.037858 291.988129,11.474745 
z"/>
<path fill="#55B957" opacity="1.000000" stroke="none" 
	d="
M9.604594,223.142548 
	C10.517869,223.443161 11.086143,223.991837 11.836208,224.778488 
	C11.694242,228.828781 11.356485,232.639984 11.056266,236.454147 
	C10.978208,237.445831 10.801004,238.501114 11.035636,239.435165 
	C13.862871,250.690048 13.890476,261.884827 11.173376,273.210754 
	C10.676226,275.283081 12.316024,277.868011 12.980225,280.606934 
	C11.971060,280.998047 10.951069,280.998505 9.548451,280.998352 
	C8.445046,276.691101 7.348979,272.406677 7.093637,268.072662 
	C6.733060,261.952454 6.712609,255.779816 7.056711,249.658264 
	C7.549654,240.888809 8.502890,232.145233 9.604594,223.142548 
z"/>
<path fill="#377A38" opacity="1.000000" stroke="none" 
	d="
M492.974304,336.621765 
	C489.255554,336.852234 489.878540,334.524109 490.396423,332.389801 
	C491.582764,327.500488 492.574829,322.530609 494.275177,317.820679 
	C494.759003,316.480530 497.407104,315.921661 499.469543,315.018738 
	C497.642792,322.122009 495.409210,329.211090 492.974304,336.621765 
z"/>
<path fill="#55B758" opacity="1.000000" stroke="none" 
	d="
M219.537506,12.100349 
	C219.475052,16.683060 215.845444,14.086002 213.751221,14.715557 
	C207.496536,16.595825 201.116043,18.077133 194.735794,19.494022 
	C193.995102,19.658508 192.947571,18.441305 192.027100,17.517433 
	C193.473633,16.493349 194.872665,15.544650 196.408783,15.190353 
	C201.125687,14.102419 205.870911,13.083385 210.653427,12.354536 
	C213.416809,11.933402 216.273270,12.123134 219.537506,12.100349 
z"/>
<path fill="#55B758" opacity="1.000000" stroke="none" 
	d="
M321.652771,16.931078 
	C322.057922,21.665194 318.541412,19.606920 317.044800,19.328257 
	C309.720459,17.964493 302.481781,16.133450 295.235413,14.374565 
	C294.770905,14.261820 294.496613,13.365482 294.073608,12.498214 
	C299.022614,12.811395 304.029297,13.481124 309.042175,14.100261 
	C311.782867,14.438762 314.558411,14.555549 317.270599,15.039355 
	C318.673157,15.289546 319.971741,16.122379 321.652771,16.931078 
z"/>
<path fill="#357436" opacity="1.000000" stroke="none" 
	d="
M420.504822,444.037231 
	C419.609985,442.849854 418.286774,440.759247 418.604034,440.470367 
	C423.689240,435.840210 428.983704,431.439880 434.950043,426.990509 
	C436.146118,427.007263 436.622711,427.020782 437.099304,427.034302 
	C431.679413,432.680298 426.259521,438.326294 420.504822,444.037231 
z"/>
<path fill="#347336" opacity="1.000000" stroke="none" 
	d="
M503.862061,298.510132 
	C502.437073,297.828400 500.162384,296.885437 499.880035,295.528015 
	C498.729889,289.998291 499.766724,284.709778 503.705872,280.035950 
	C504.372772,280.516968 505.057068,281.307129 504.888611,281.590759 
	C501.714355,286.934998 505.046936,292.629089 503.862061,298.510132 
z"/>
<path fill="#367136" opacity="1.000000" stroke="none" 
	d="
M403.452454,457.996735 
	C399.490082,456.131561 401.988220,454.039276 403.337921,452.659271 
	C405.464447,450.484985 407.954376,448.530640 410.609619,447.059021 
	C412.240204,446.155273 414.465424,446.324310 416.801392,446.028992 
	C412.720612,450.007660 408.262054,453.968964 403.452454,457.996735 
z"/>
<path fill="#55B857" opacity="1.000000" stroke="none" 
	d="
M255.782196,498.897797 
	C257.637115,499.859741 259.013641,500.867676 260.715515,501.938599 
	C259.804321,505.953613 256.603302,503.873871 254.439590,503.789368 
	C250.912704,503.651672 247.420883,502.616119 243.464813,501.898621 
	C245.175278,500.892853 247.263092,499.662781 249.517776,499.092438 
	C251.342224,498.630920 253.367569,498.963470 255.782196,498.897797 
z"/>
<path fill="#326E34" opacity="1.000000" stroke="none" 
	d="
M476.553284,374.032410 
	C473.690643,373.716064 472.617523,372.510254 473.998016,370.042023 
	C475.277985,367.753540 476.508331,365.417664 478.042419,363.307556 
	C478.348267,362.886841 479.928589,363.392731 480.999237,363.807556 
	C479.686493,367.413849 478.295746,370.683899 476.553284,374.032410 
z"/>
<path fill="#469346" opacity="1.000000" stroke="none" 
	d="
M464.990997,387.998962 
	C466.484619,381.483551 468.984253,378.786865 474.708344,377.933044 
	C473.678223,380.375488 472.199615,382.811340 470.827972,385.305969 
	C470.035461,386.747253 469.415436,388.283386 468.208374,389.720154 
	C466.796295,389.108643 465.893646,388.553802 464.990997,387.998962 
z"/>
<path fill="#55BA57" opacity="1.000000" stroke="none" 
	d="
M93.516006,67.982315 
	C94.423798,69.170082 95.751938,71.137268 95.396461,71.513420 
	C93.595123,73.419571 91.462440,75.087288 89.211098,76.450943 
	C88.472305,76.898430 87.028320,76.181664 85.536270,75.991890 
	C87.830460,73.333641 90.495178,70.680817 93.516006,67.982315 
z"/>
<path fill="#3E803F" opacity="1.000000" stroke="none" 
	d="
M459.447205,400.992798 
	C458.638245,399.692352 457.441742,397.943176 457.902863,397.046173 
	C458.880066,395.145294 460.721588,393.688782 462.574341,391.996582 
	C462.939972,391.943085 462.997009,391.997498 463.031616,392.322083 
	C463.386230,393.453278 463.706238,394.259857 464.026245,395.066437 
	C462.644745,397.038025 463.657745,400.731049 459.447205,400.992798 
z"/>
<path fill="#58B85A" opacity="1.000000" stroke="none" 
	d="
M438.878479,85.628387 
	C433.273224,85.652802 430.496704,82.040749 428.883270,77.122482 
	C434.646149,77.041687 435.347321,82.841400 438.878479,85.628387 
z"/>
<path fill="#58B85A" opacity="1.000000" stroke="none" 
	d="
M427.059265,74.598579 
	C424.054504,76.315132 421.236572,75.949089 419.603241,72.907074 
	C418.923981,71.641998 419.451935,69.728691 419.778076,68.023148 
	C422.414337,70.037750 424.703430,72.139351 427.059265,74.598579 
z"/>
<path fill="#3E833E" opacity="1.000000" stroke="none" 
	d="
M487.476257,352.890564 
	C486.134186,352.198425 484.037354,350.908783 484.212097,350.401215 
	C484.870911,348.487640 486.268616,346.828491 487.761505,344.990173 
	C488.500885,346.228729 489.200562,347.566254 489.141693,348.869476 
	C489.083862,350.148529 488.255005,351.392700 487.476257,352.890564 
z"/>
<path fill="#3B813C" opacity="1.000000" stroke="none" 
	d="
M446.318481,418.861206 
	C445.145172,418.401367 444.273224,417.760040 442.253876,416.274811 
	C445.291626,414.321991 447.790863,412.715363 450.651672,411.055389 
	C449.548706,413.561249 448.084229,416.120483 446.318481,418.861206 
z"/>
<path fill="#397D3A" opacity="1.000000" stroke="none" 
	d="
M278.498505,501.894623 
	C281.585510,498.246979 284.538116,498.040314 287.914124,501.531403 
	C284.959259,501.910156 281.952820,501.923370 278.498505,501.894623 
z"/>
<path fill="#337336" opacity="1.000000" stroke="none" 
	d="
M437.430969,426.972107 
	C436.622711,427.020782 436.146118,427.007263 435.311401,426.980591 
	C436.043243,423.928711 436.585938,420.188660 441.758514,421.981079 
	C440.660858,423.656647 439.211731,425.283234 437.430969,426.972107 
z"/>
<path fill="#3E803F" opacity="1.000000" stroke="none" 
	d="
M464.696228,388.162628 
	C465.893646,388.553802 466.796295,389.108643 467.881714,389.923523 
	C467.422150,390.625793 466.779816,391.068024 465.628906,391.761353 
	C464.412567,392.007446 463.704773,392.002472 462.997009,391.997498 
	C462.997009,391.997498 462.939972,391.943085 462.909363,391.915192 
	C463.386292,390.700287 463.893860,389.513306 464.696228,388.162628 
z"/>
<path fill="#367136" opacity="1.000000" stroke="none" 
	d="
M396.483337,460.062286 
	C396.229553,459.216309 396.330872,458.333588 396.432159,457.450867 
	C397.273621,458.023376 398.115112,458.595917 398.964172,459.507660 
	C398.260651,459.906433 397.549530,459.966003 396.483337,460.062286 
z"/>
<path fill="#326E34" opacity="1.000000" stroke="none" 
	d="
M483.645752,360.192688 
	C483.727112,359.053345 484.142670,357.818268 484.765808,356.773132 
	C484.642181,358.007690 484.311035,359.052307 483.645752,360.192688 
z"/>
<path fill="#469346" opacity="1.000000" stroke="none" 
	d="
M463.031616,392.322083 
	C463.704773,392.002472 464.412567,392.007446 465.473877,392.018890 
	C465.469574,393.011444 465.111694,393.997528 464.390045,395.025024 
	C463.706238,394.259857 463.386230,393.453278 463.031616,392.322083 
z"/>
<path fill="#FBFDFB" opacity="1.000000" stroke="none" 
	d="
M151.991364,357.039154 
	C148.655151,355.976685 145.318924,354.914246 141.597595,353.800354 
	C141.212509,353.748932 141.150681,353.835083 141.136383,353.534485 
	C140.417328,352.707123 139.712585,352.180389 139.007843,351.653656 
	C129.678375,343.679047 126.911270,333.524750 127.026146,321.410126 
	C127.454308,276.258484 127.183739,231.100357 127.204575,185.944656 
	C127.213013,167.655075 139.656296,155.286911 157.972443,155.272552 
	C162.304657,155.269150 166.641098,155.158066 170.966797,155.324921 
	C172.509689,155.384430 174.026505,156.120010 175.889404,156.761200 
	C176.119263,161.298569 175.732941,165.638596 175.990219,169.940155 
	C176.245865,174.214294 174.562515,175.655899 170.498337,175.179413 
	C168.525665,174.948151 166.504486,175.136307 164.505341,175.123810 
	C160.948700,175.101608 157.032501,175.726547 157.144516,179.919449 
	C157.253464,183.997208 161.424149,183.949158 164.565338,183.965668 
	C178.725510,184.040146 192.886322,183.992630 207.046906,183.993408 
	C257.025696,183.996170 307.004517,183.984451 356.983307,184.016846 
	C368.356567,184.024216 377.431732,188.584900 383.046021,198.624680 
	C385.010040,202.136826 386.297119,206.329086 386.714325,210.333603 
	C387.332581,216.268188 386.987122,222.314194 386.849030,228.308105 
	C386.817871,229.660736 385.951477,230.994110 384.766724,232.543030 
	C376.955353,232.737137 369.846039,232.652710 362.738464,232.729340 
	C352.838135,232.836060 342.939056,233.063293 333.039459,233.238953 
	C318.967010,232.925522 303.680817,245.836121 299.982941,261.158264 
	C294.141113,285.363861 311.765289,308.057129 336.676239,308.262512 
	C351.824158,308.387390 366.975159,308.410583 382.121857,308.232880 
	C385.869659,308.188934 387.183624,309.388397 386.975037,313.086395 
	C386.731659,317.400970 386.923492,321.739777 386.917816,326.068085 
	C386.896210,342.534302 378.479736,353.049103 361.812073,356.745056 
	C359.274780,356.951935 357.444763,356.983276 355.614777,356.983826 
	C287.740295,357.004028 219.865829,357.021423 151.991364,357.039154 
M275.690399,246.344437 
	C276.032837,244.930771 276.375275,243.517120 276.965363,241.081268 
	C271.745575,242.271210 267.217316,243.303513 262.157501,244.456985 
	C263.254150,246.431290 263.942688,247.670883 264.852234,249.308334 
	C257.002930,256.585571 249.269592,263.755341 241.252533,271.188110 
	C235.730377,265.390564 230.714920,260.125000 225.769226,254.932648 
	C224.944489,255.281570 224.392670,255.366302 224.052612,255.680344 
	C211.329651,267.429321 198.592499,279.163696 185.994110,291.045105 
	C185.128937,291.861023 185.320953,293.797974 185.021332,295.213593 
	C186.409195,294.824005 188.173660,294.848633 189.127350,293.981506 
	C200.092651,284.011505 211.002975,273.977966 221.759583,263.783722 
	C224.289200,261.386353 225.845032,261.281219 228.184967,263.974823 
	C232.184692,268.579132 236.550613,272.865356 240.961563,277.493805 
	C250.273026,269.032806 259.110168,261.001526 267.956421,252.980316 
	C268.058350,252.887894 268.278625,252.926010 268.445343,252.904083 
	C269.656525,253.627563 270.867737,254.351044 272.572571,255.369385 
	C273.635773,252.318878 274.547943,249.701660 275.690399,246.344437 
z"/>
<path fill="#F9FCF8" opacity="1.000000" stroke="none" 
	d="
M386.511658,131.203812 
	C386.537628,134.767792 386.563629,138.331757 386.154236,142.438965 
	C385.555939,143.732910 385.393036,144.483612 385.230103,145.234299 
	C385.108185,145.591888 384.986267,145.949478 384.441467,146.670441 
	C383.788666,147.793503 383.558746,148.553207 383.328796,149.312912 
	C379.850342,157.252258 376.238953,165.137115 372.953003,173.155350 
	C371.449921,176.823135 369.525757,178.839096 365.208710,178.368088 
	C361.424347,177.955170 357.559082,178.249893 353.730133,178.288773 
	C350.407990,178.322525 348.998383,177.218903 350.516479,173.735489 
	C351.766388,170.867493 353.969269,167.597229 353.410583,165.010452 
	C352.941467,162.838348 348.966400,161.544174 346.772034,159.603012 
	C337.474915,151.378632 335.384033,140.760345 337.505463,129.153931 
	C338.102844,125.885696 337.387024,124.751030 334.537750,123.652977 
	C328.187042,121.205582 322.015717,118.290268 315.651276,115.882950 
	C314.376068,115.400612 311.704468,115.784157 311.133759,116.688232 
	C302.252808,130.756912 289.662476,134.601120 274.062469,130.689667 
	C273.779785,130.618790 273.428650,130.820999 272.740448,130.982224 
	C266.973938,144.518478 260.876740,158.162079 255.399719,172.050262 
	C253.480804,176.916077 250.955505,178.910065 245.811005,178.344971 
	C242.191650,177.947418 238.491104,178.177429 234.831604,178.287186 
	C230.871857,178.405960 230.327271,176.960922 231.838730,173.441940 
	C239.775543,154.963455 247.535904,136.409195 255.354156,117.879822 
	C257.451721,112.908531 259.537323,107.932190 261.643860,102.575470 
	C262.850403,99.652283 264.092163,97.134132 265.223755,94.567406 
	C269.920166,83.914757 280.032013,78.873817 290.875763,82.886749 
	C303.916321,87.712662 316.634583,93.411278 329.480286,98.761063 
	C336.049652,101.496948 342.592621,104.296158 349.611542,107.507126 
	C351.770111,108.542084 353.464691,109.136681 355.159241,109.731262 
	C355.525818,109.874977 355.892395,110.018684 356.661743,110.549973 
	C357.798950,111.132347 358.533325,111.327156 359.267731,111.521965 
	C359.903412,111.729370 360.539124,111.936783 361.622375,112.562927 
	C363.768860,113.564346 365.467712,114.147026 367.166595,114.729706 
	C367.526306,114.883003 367.886017,115.036308 368.646912,115.583176 
	C369.783478,116.168488 370.518860,116.360222 371.254211,116.551949 
	C371.888092,116.761177 372.521973,116.970398 373.584808,117.575554 
	C374.734680,118.221626 375.455597,118.471771 376.176514,118.721909 
	C376.891907,119.113220 377.607330,119.504532 378.655090,120.385986 
	C380.541718,122.337891 382.095978,123.799644 383.650269,125.261391 
	C384.110748,126.214394 384.571198,127.167397 385.091125,128.732468 
	C385.604309,129.964279 386.057983,130.584045 386.511658,131.203812 
z"/>
<path fill="#F4F8F4" opacity="1.000000" stroke="none" 
	d="
M252.854004,95.451447 
	C245.682236,112.556755 238.429962,129.298706 231.232193,146.064041 
	C227.106842,155.673004 223.094208,165.330292 218.979004,174.943649 
	C217.714798,177.896912 210.169495,179.895721 208.053879,177.715225 
	C207.358444,176.998474 207.238678,175.229324 207.532211,174.120499 
	C212.417389,155.667877 217.425537,137.247864 222.359146,118.807976 
	C222.958252,116.568726 223.285248,114.256676 223.715393,111.552116 
	C224.497818,108.971306 225.299713,106.815437 226.109207,104.662422 
	C229.532135,95.558403 238.141159,90.156525 247.725479,91.574051 
	C249.549591,91.843842 251.112762,93.877853 252.854004,95.451447 
z"/>
<path fill="#F3F8F3" opacity="1.000000" stroke="none" 
	d="
M212.187103,102.684616 
	C210.253296,110.096161 207.914001,117.154472 205.946396,124.314919 
	C201.335236,141.095764 196.733185,157.883118 192.497681,174.760773 
	C191.190430,179.969879 187.606567,178.259094 184.696976,178.133255 
	C180.991791,177.972977 182.191040,174.847992 182.360794,172.756989 
	C182.709015,168.467926 183.351166,164.202728 183.759308,159.549728 
	C185.491211,146.369629 187.536285,133.592148 189.116852,120.757469 
	C190.350540,110.739784 196.973724,102.858185 206.343506,101.539680 
	C208.137680,101.287209 210.077774,102.071709 212.187103,102.684616 
z"/>
<path fill="#ACBFAC" opacity="1.000000" stroke="none" 
	d="
M383.694824,124.912247 
	C382.095978,123.799644 380.541718,122.337891 378.905090,120.564270 
	C380.461609,121.689301 382.100494,123.126198 383.694824,124.912247 
z"/>
<path fill="#ACBFAC" opacity="1.000000" stroke="none" 
	d="
M355.038025,109.418854 
	C353.464691,109.136681 351.770111,108.542084 349.949768,107.638458 
	C351.521576,107.921761 353.219208,108.514099 355.038025,109.418854 
z"/>
<path fill="#ACBFAC" opacity="1.000000" stroke="none" 
	d="
M367.041687,114.418472 
	C365.467712,114.147026 363.768860,113.564346 361.937012,112.676102 
	C363.508301,112.949425 365.212555,113.528328 367.041687,114.418472 
z"/>
<path fill="#2C622E" opacity="1.000000" stroke="none" 
	d="
M139.113129,351.997864 
	C139.712585,352.180389 140.417328,352.707123 141.169998,353.575439 
	C140.551422,353.392029 139.884918,352.867035 139.113129,351.997864 
z"/>
<path fill="#ACBFAC" opacity="1.000000" stroke="none" 
	d="
M359.137848,111.247131 
	C358.533325,111.327156 357.798950,111.132347 356.937439,110.655876 
	C357.542847,110.573570 358.275421,110.772926 359.137848,111.247131 
z"/>
<path fill="#ACBFAC" opacity="1.000000" stroke="none" 
	d="
M371.126648,116.273735 
	C370.518860,116.360222 369.783478,116.168488 368.916504,115.698700 
	C369.522919,115.612274 370.261017,115.803894 371.126648,116.273735 
z"/>
<path fill="#ACBFAC" opacity="1.000000" stroke="none" 
	d="
M376.063721,118.433235 
	C375.455597,118.471771 374.734680,118.221626 373.898682,117.689102 
	C374.506042,117.652672 375.228485,117.898613 376.063721,118.433235 
z"/>
<path fill="#ACBFAC" opacity="1.000000" stroke="none" 
	d="
M386.648865,130.852814 
	C386.057983,130.584045 385.604309,129.964279 385.192261,129.036469 
	C385.545197,128.742386 385.839966,128.819412 386.343170,128.986481 
	C386.640808,129.509583 386.713440,130.005707 386.648865,130.852814 
z"/>
<path fill="#F7FAF7" opacity="1.000000" stroke="none" 
	d="
M395.469604,248.974686 
	C395.605011,262.698120 395.760071,276.011871 395.655304,289.323578 
	C395.603821,295.869965 391.927246,299.594940 385.373138,299.653107 
	C369.230011,299.796387 353.072357,300.079498 336.943726,299.571045 
	C321.066559,299.070557 309.142578,285.674652 309.521759,269.823120 
	C309.908600,253.651611 321.972687,241.636658 338.258972,241.485260 
	C353.736603,241.341370 369.217072,241.513748 384.695312,241.408768 
	C390.015076,241.372696 393.606506,243.509323 395.469604,248.974686 
M339.663025,277.767944 
	C340.627197,278.409180 341.543152,279.142456 342.563507,279.676300 
	C348.181915,282.615845 354.250183,280.410217 357.054596,274.454102 
	C359.392914,269.487885 356.755798,263.124847 351.370422,260.871857 
	C346.840088,258.976624 342.894714,260.046570 339.588104,263.523651 
	C335.956940,267.341980 335.872009,271.356110 339.663025,277.767944 
z"/>
<path fill="#F8FAF7" opacity="1.000000" stroke="none" 
	d="
M321.123474,178.328278 
	C307.062317,178.316940 293.426147,178.186661 279.794250,178.372437 
	C275.179230,178.435318 274.409760,176.514755 275.323334,172.543579 
	C278.374176,159.281555 289.804749,150.390793 305.350647,150.602921 
	C321.081543,150.817612 333.519073,157.477310 340.951782,171.957245 
	C343.635010,177.184494 342.940063,178.261292 337.013397,178.305099 
	C331.859192,178.343201 326.704590,178.325821 321.123474,178.328278 
z"/>
<path fill="#205D23" opacity="1.000000" stroke="none" 
	d="
M152.033600,357.442261 
	C219.865829,357.021423 287.740295,357.004028 355.614777,356.983826 
	C357.444763,356.983276 359.274780,356.951935 361.567230,357.028168 
	C361.313812,358.060547 360.765350,359.268250 359.828217,359.852478 
	C359.100800,360.305939 357.888153,359.999390 356.891205,359.999451 
	C290.378845,360.002380 223.866470,360.018707 157.354294,359.911865 
	C155.593704,359.909027 153.835266,358.564301 152.033600,357.442261 
z"/>
<path fill="#0A500F" opacity="1.000000" stroke="none" 
	d="
M333.197815,233.589081 
	C342.939056,233.063293 352.838135,232.836060 362.738464,232.729340 
	C369.846039,232.652710 376.955353,232.737137 384.522949,232.845795 
	C384.427246,233.629868 383.875519,234.915985 383.317352,234.918823 
	C367.202362,235.000504 351.086731,234.963242 334.971497,234.886108 
	C334.431519,234.883530 333.894531,234.268677 333.197815,233.589081 
z"/>
<path fill="#ACBFAC" opacity="1.000000" stroke="none" 
	d="
M385.520325,145.113342 
	C385.393036,144.483612 385.555939,143.732910 386.000702,142.855774 
	C386.125183,143.483688 385.967834,144.238022 385.520325,145.113342 
z"/>
<path fill="#ACBFAC" opacity="1.000000" stroke="none" 
	d="
M383.617615,149.191986 
	C383.558746,148.553207 383.788666,147.793503 384.322205,146.927856 
	C384.386017,147.571625 384.146240,148.321335 383.617615,149.191986 
z"/>
<path fill="#000000" opacity="1.000000" stroke="none" 
	d="
M492.007690,339.992859 
	C491.479553,339.771667 490.942505,339.559235 490.405457,339.346802 
	C490.545654,339.131470 490.685852,338.916138 490.826080,338.700806 
	C491.185638,338.960876 491.545197,339.220947 491.943542,339.751221 
	C491.982330,340.021393 491.998810,340.001648 492.007690,339.992859 
z"/>
<path fill="#60B863" opacity="1.000000" stroke="none" 
	d="
M275.575256,246.714447 
	C274.547943,249.701660 273.635773,252.318878 272.572571,255.369385 
	C270.867737,254.351044 269.656525,253.627563 268.444519,252.903625 
	C268.278625,252.926010 268.058350,252.887894 267.956421,252.980316 
	C259.110168,261.001526 250.273026,269.032806 240.961563,277.493805 
	C236.550613,272.865356 232.184692,268.579132 228.184967,263.974823 
	C225.845032,261.281219 224.289200,261.386353 221.759583,263.783722 
	C211.002975,273.977966 200.092651,284.011505 189.127350,293.981506 
	C188.173660,294.848633 186.409195,294.824005 185.021332,295.213562 
	C185.320953,293.797974 185.128937,291.861023 185.994110,291.045105 
	C198.592499,279.163696 211.329651,267.429321 224.052612,255.680344 
	C224.392670,255.366302 224.944489,255.281570 225.769226,254.932648 
	C230.714920,260.125000 235.730377,265.390564 241.252533,271.188110 
	C249.269592,263.755341 257.002930,256.585571 264.852234,249.308334 
	C263.942688,247.670883 263.254150,246.431290 262.157501,244.456985 
	C267.217316,243.303513 271.745575,242.271210 276.965363,241.081268 
	C276.375275,243.517120 276.032837,244.930771 275.575256,246.714447 
z"/>
<path fill="#346836" opacity="1.000000" stroke="none" 
	d="
M339.405487,277.479736 
	C335.872009,271.356110 335.956940,267.341980 339.588104,263.523651 
	C342.894714,260.046570 346.840088,258.976624 351.370422,260.871857 
	C356.755798,263.124847 359.392914,269.487885 357.054596,274.454102 
	C354.250183,280.410217 348.181915,282.615845 342.563507,279.676300 
	C341.543152,279.142456 340.627197,278.409180 339.405487,277.479736 
z"/>
</svg>